G04*
G04 #@! TF.GenerationSoftware,Altium Limited,Altium Designer,25.4.2 (15)*
G04*
G04 Layer_Color=8388736*
%FSLAX25Y25*%
%MOIN*%
G70*
G04*
G04 #@! TF.SameCoordinates,07519B64-833F-4F80-895D-8AF32BAA5A22*
G04*
G04*
G04 #@! TF.FilePolarity,Negative*
G04*
G01*
G75*
%ADD42R,0.33871X0.42139*%
%ADD43R,0.11824X0.04934*%
%ADD44R,0.15367X0.06706*%
%ADD45R,0.36233X0.24422*%
%ADD46R,0.05918X0.03556*%
%ADD47R,0.07296X0.09265*%
%ADD48R,0.09265X0.07296*%
%ADD49O,0.05328X0.06509*%
%ADD50O,0.06509X0.05328*%
%ADD51R,0.09461X0.05524*%
%ADD52R,0.09461X0.14973*%
%ADD53R,0.03359X0.02887*%
%ADD54R,0.02887X0.03359*%
%ADD55R,0.13792X0.10249*%
G04:AMPARAMS|DCode=56|XSize=28.08mil|YSize=51.31mil|CornerRadius=14.04mil|HoleSize=0mil|Usage=FLASHONLY|Rotation=0.000|XOffset=0mil|YOffset=0mil|HoleType=Round|Shape=RoundedRectangle|*
%AMROUNDEDRECTD56*
21,1,0.02808,0.02323,0,0,0.0*
21,1,0.00000,0.05131,0,0,0.0*
1,1,0.02808,0.00000,-0.01161*
1,1,0.02808,0.00000,-0.01161*
1,1,0.02808,0.00000,0.01161*
1,1,0.02808,0.00000,0.01161*
%
%ADD56ROUNDEDRECTD56*%
%ADD57R,0.10249X0.13792*%
G04:AMPARAMS|DCode=58|XSize=28.08mil|YSize=51.31mil|CornerRadius=14.04mil|HoleSize=0mil|Usage=FLASHONLY|Rotation=90.000|XOffset=0mil|YOffset=0mil|HoleType=Round|Shape=RoundedRectangle|*
%AMROUNDEDRECTD58*
21,1,0.02808,0.02323,0,0,90.0*
21,1,0.00000,0.05131,0,0,90.0*
1,1,0.02808,0.01161,0.00000*
1,1,0.02808,0.01161,0.00000*
1,1,0.02808,-0.01161,0.00000*
1,1,0.02808,-0.01161,0.00000*
%
%ADD58ROUNDEDRECTD58*%
%ADD59R,0.05524X0.05524*%
%ADD60R,0.04737X0.04737*%
%ADD61R,0.04737X0.04737*%
%ADD62R,0.03792X0.03950*%
%ADD63C,0.03100*%
%ADD64C,0.20800*%
%ADD65O,0.05524X0.04343*%
%ADD66C,0.06706*%
%ADD67R,0.06706X0.06706*%
%ADD68C,0.06706*%
%ADD69R,0.06706X0.06706*%
%ADD70O,0.08674X0.04737*%
%ADD71O,0.08674X0.04737*%
%ADD72C,0.06800*%
%ADD73O,0.10800X0.05800*%
%ADD74C,0.14580*%
D42*
X200685Y428106D02*
D03*
D43*
X238678Y441492D02*
D03*
Y434799D02*
D03*
Y428106D02*
D03*
Y421413D02*
D03*
Y414720D02*
D03*
D44*
X245500Y262500D02*
D03*
Y274705D02*
D03*
D45*
X201867Y290500D02*
D03*
Y331000D02*
D03*
D46*
X346051Y265500D02*
D03*
Y261760D02*
D03*
Y258020D02*
D03*
X355500D02*
D03*
Y265500D02*
D03*
D47*
X323905Y286000D02*
D03*
X312094D02*
D03*
X323905Y327500D02*
D03*
X312094D02*
D03*
X255811Y381500D02*
D03*
X244000D02*
D03*
X253268Y306500D02*
D03*
X241457D02*
D03*
X323811Y271000D02*
D03*
X312000D02*
D03*
D48*
X266500Y372905D02*
D03*
Y361094D02*
D03*
X258000Y435094D02*
D03*
Y446906D02*
D03*
Y423906D02*
D03*
Y412094D02*
D03*
D49*
X438717Y405500D02*
D03*
X446000D02*
D03*
X438717Y396500D02*
D03*
X446000D02*
D03*
X486500Y398000D02*
D03*
X493784D02*
D03*
X486500Y408000D02*
D03*
X493784D02*
D03*
X261642Y467500D02*
D03*
X254358D02*
D03*
X277000Y433500D02*
D03*
X269717D02*
D03*
X261642Y456500D02*
D03*
X254358D02*
D03*
X439858Y353500D02*
D03*
X447142D02*
D03*
X439858Y344500D02*
D03*
X447142D02*
D03*
X486500Y342500D02*
D03*
X493784D02*
D03*
Y353000D02*
D03*
X486500D02*
D03*
X546000Y444500D02*
D03*
X553284D02*
D03*
X439358Y379000D02*
D03*
X446642D02*
D03*
X439358Y370500D02*
D03*
X446642D02*
D03*
X545858Y434000D02*
D03*
X553142D02*
D03*
X493784Y371000D02*
D03*
X486500D02*
D03*
X545858Y423500D02*
D03*
X553142D02*
D03*
X545716Y414000D02*
D03*
X553000D02*
D03*
X493784Y381500D02*
D03*
X486500D02*
D03*
D50*
Y450358D02*
D03*
Y457642D02*
D03*
X474500Y450358D02*
D03*
Y457642D02*
D03*
X461500Y450358D02*
D03*
Y457642D02*
D03*
X449500Y450358D02*
D03*
Y457642D02*
D03*
X437500Y450358D02*
D03*
Y457642D02*
D03*
X584500Y385642D02*
D03*
Y378358D02*
D03*
X461000Y282142D02*
D03*
Y274858D02*
D03*
X451000Y282142D02*
D03*
Y274858D02*
D03*
X482500Y282142D02*
D03*
Y274858D02*
D03*
X471500Y282142D02*
D03*
Y274858D02*
D03*
X584000Y350858D02*
D03*
Y358142D02*
D03*
X563000Y317717D02*
D03*
Y325000D02*
D03*
D51*
X245984Y339055D02*
D03*
Y330000D02*
D03*
Y320945D02*
D03*
D52*
X270394Y330000D02*
D03*
D53*
X312004Y256500D02*
D03*
X324996D02*
D03*
X242504Y362500D02*
D03*
X255496D02*
D03*
X241504Y399000D02*
D03*
X254496D02*
D03*
D54*
X578500Y306996D02*
D03*
Y294004D02*
D03*
D55*
X317956Y307557D02*
D03*
D56*
X320478Y297489D02*
D03*
X315478D02*
D03*
X310410Y297376D02*
D03*
X325590Y297545D02*
D03*
Y317624D02*
D03*
X310478Y317568D02*
D03*
X315478D02*
D03*
X320478D02*
D03*
D57*
X466011Y402478D02*
D03*
Y347956D02*
D03*
Y375956D02*
D03*
D58*
X476079Y405000D02*
D03*
Y400000D02*
D03*
X476192Y394932D02*
D03*
X476022Y410112D02*
D03*
X455944D02*
D03*
X456000Y395000D02*
D03*
Y400000D02*
D03*
Y405000D02*
D03*
X476079Y350478D02*
D03*
Y345478D02*
D03*
X476192Y340410D02*
D03*
X476022Y355590D02*
D03*
X455944D02*
D03*
X456000Y340478D02*
D03*
Y345478D02*
D03*
Y350478D02*
D03*
X476079Y378478D02*
D03*
Y373478D02*
D03*
X476192Y368410D02*
D03*
X476022Y383590D02*
D03*
X455944D02*
D03*
X456000Y368478D02*
D03*
Y373478D02*
D03*
Y378478D02*
D03*
D59*
X487000Y477911D02*
D03*
Y470431D02*
D03*
X474500Y477911D02*
D03*
Y470431D02*
D03*
X462500Y477911D02*
D03*
Y470431D02*
D03*
X450000Y477911D02*
D03*
Y470431D02*
D03*
X438000Y477911D02*
D03*
Y470431D02*
D03*
D60*
X335500Y265500D02*
D03*
Y257626D02*
D03*
X299000Y311500D02*
D03*
Y303626D02*
D03*
X279500Y362563D02*
D03*
Y370437D02*
D03*
X259000Y267626D02*
D03*
Y275500D02*
D03*
X276000Y275437D02*
D03*
Y267563D02*
D03*
X563000Y298626D02*
D03*
Y306500D02*
D03*
D61*
X346563Y274500D02*
D03*
X354437D02*
D03*
X313063Y341000D02*
D03*
X320937D02*
D03*
X248051Y289500D02*
D03*
X240177D02*
D03*
D62*
X350992Y330500D02*
D03*
X345008D02*
D03*
D63*
X200768Y480929D02*
D03*
X193064Y467198D02*
D03*
X186464Y474348D02*
D03*
X191225Y482835D02*
D03*
X201904Y471265D02*
D03*
X200768Y260799D02*
D03*
X193064Y247068D02*
D03*
X186464Y254218D02*
D03*
X191225Y262705D02*
D03*
X201904Y251135D02*
D03*
X598398Y480929D02*
D03*
X590694Y467198D02*
D03*
X584094Y474348D02*
D03*
X588855Y482835D02*
D03*
X599534Y471265D02*
D03*
X598523Y260712D02*
D03*
X590819Y246980D02*
D03*
X584219Y254131D02*
D03*
X588980Y262617D02*
D03*
X599659Y251047D02*
D03*
D64*
X194685Y475315D02*
D03*
Y255185D02*
D03*
X592315Y475315D02*
D03*
X592440Y255098D02*
D03*
D65*
X597000Y383500D02*
D03*
Y378500D02*
D03*
X598000Y353000D02*
D03*
Y358000D02*
D03*
D66*
X408319Y321500D02*
D03*
X398319D02*
D03*
X408319Y331500D02*
D03*
X398319D02*
D03*
X408319Y341500D02*
D03*
X398319D02*
D03*
X408319Y351500D02*
D03*
X398319D02*
D03*
X408319Y361500D02*
D03*
X398319D02*
D03*
X408319Y371500D02*
D03*
X398319D02*
D03*
X408319Y381500D02*
D03*
X398319D02*
D03*
X408319Y391500D02*
D03*
X398319D02*
D03*
X408319Y401500D02*
D03*
X398319D02*
D03*
X408319Y411500D02*
D03*
X398319D02*
D03*
X408319Y421500D02*
D03*
X530681Y321500D02*
D03*
X520681D02*
D03*
X530681Y331500D02*
D03*
X520681D02*
D03*
X530681Y341500D02*
D03*
X520681D02*
D03*
X530681Y351500D02*
D03*
X520681D02*
D03*
X530681Y361500D02*
D03*
X520681D02*
D03*
X530681Y371500D02*
D03*
X520681D02*
D03*
X530681Y381500D02*
D03*
X520681D02*
D03*
X530681Y391500D02*
D03*
X520681D02*
D03*
X530681Y401500D02*
D03*
X520681D02*
D03*
X530681Y411500D02*
D03*
X520681D02*
D03*
X530681Y421500D02*
D03*
X509500Y311500D02*
D03*
Y301500D02*
D03*
X499500Y311500D02*
D03*
Y301500D02*
D03*
X489500Y311500D02*
D03*
Y301500D02*
D03*
X479500Y311500D02*
D03*
Y301500D02*
D03*
X469500Y311500D02*
D03*
Y301500D02*
D03*
X439500Y311500D02*
D03*
Y301500D02*
D03*
X429500Y311500D02*
D03*
Y301500D02*
D03*
X419500Y311500D02*
D03*
X362000Y367500D02*
D03*
X372000Y377500D02*
D03*
X362000D02*
D03*
X372000Y387500D02*
D03*
X362000D02*
D03*
X372000Y397500D02*
D03*
X362000D02*
D03*
X372000Y407500D02*
D03*
X362000D02*
D03*
X372000Y417500D02*
D03*
X362000D02*
D03*
X361500Y302000D02*
D03*
X371500Y312000D02*
D03*
X361500D02*
D03*
X371500Y322000D02*
D03*
X361500D02*
D03*
X371500Y332000D02*
D03*
X361500D02*
D03*
X371500Y342000D02*
D03*
X361500D02*
D03*
X371500Y352000D02*
D03*
X361500D02*
D03*
X452500Y258500D02*
D03*
X462500Y248500D02*
D03*
Y258500D02*
D03*
X472500Y248500D02*
D03*
Y258500D02*
D03*
X482500Y248500D02*
D03*
Y258500D02*
D03*
X522000D02*
D03*
Y248500D02*
D03*
X512000Y258500D02*
D03*
Y248500D02*
D03*
X502000Y258500D02*
D03*
X374000Y472978D02*
D03*
Y482978D02*
D03*
X384000Y472978D02*
D03*
Y482978D02*
D03*
X394000Y472978D02*
D03*
X438319Y248500D02*
D03*
X428319D02*
D03*
X418319D02*
D03*
X408319D02*
D03*
X252000D02*
D03*
X262000D02*
D03*
X272000D02*
D03*
X529500Y481356D02*
D03*
X539500D02*
D03*
X549500D02*
D03*
X398319Y268500D02*
D03*
X408319D02*
D03*
X269000Y481356D02*
D03*
X279000D02*
D03*
D67*
X398319Y421500D02*
D03*
X520681D02*
D03*
X372000Y367500D02*
D03*
X371500Y302000D02*
D03*
D68*
X459500Y311500D02*
D03*
Y301500D02*
D03*
X449500Y311500D02*
D03*
Y301500D02*
D03*
D69*
X419500D02*
D03*
X452500Y248500D02*
D03*
X502000D02*
D03*
X394000Y482978D02*
D03*
X398319Y248500D02*
D03*
X242000D02*
D03*
X519500Y481356D02*
D03*
X418319Y268500D02*
D03*
X289000Y481356D02*
D03*
D70*
X578000Y328000D02*
D03*
Y318000D02*
D03*
D71*
Y323000D02*
D03*
D72*
X599500Y414000D02*
D03*
Y424000D02*
D03*
Y434000D02*
D03*
X568004Y444000D02*
D03*
Y434000D02*
D03*
X599500Y444000D02*
D03*
X568004Y424000D02*
D03*
Y414000D02*
D03*
D73*
X597000Y295000D02*
D03*
Y325000D02*
D03*
D74*
X228500Y370000D02*
D03*
X211500D02*
D03*
X194500D02*
D03*
X347500Y472000D02*
D03*
X330500D02*
D03*
X313500D02*
D03*
M02*
