G04*
G04 #@! TF.GenerationSoftware,Altium Limited,Altium Designer,25.4.2 (15)*
G04*
G04 Layer_Physical_Order=1*
G04 Layer_Color=255*
%FSLAX25Y25*%
%MOIN*%
G70*
G04*
G04 #@! TF.SameCoordinates,07519B64-833F-4F80-895D-8AF32BAA5A22*
G04*
G04*
G04 #@! TF.FilePolarity,Positive*
G04*
G01*
G75*
%ADD14C,0.01000*%
%ADD16C,0.01500*%
%ADD21R,0.33071X0.41339*%
%ADD22R,0.11024X0.04134*%
%ADD23R,0.14567X0.05906*%
%ADD24R,0.35433X0.23622*%
%ADD25R,0.05118X0.02756*%
%ADD26R,0.06496X0.08465*%
%ADD27R,0.08465X0.06496*%
%ADD28O,0.04528X0.05709*%
%ADD29O,0.05709X0.04528*%
%ADD30R,0.08661X0.04724*%
%ADD31R,0.08661X0.14173*%
%ADD32R,0.02559X0.02087*%
%ADD33R,0.02087X0.02559*%
%ADD34R,0.12992X0.09449*%
G04:AMPARAMS|DCode=35|XSize=20.08mil|YSize=43.31mil|CornerRadius=10.04mil|HoleSize=0mil|Usage=FLASHONLY|Rotation=0.000|XOffset=0mil|YOffset=0mil|HoleType=Round|Shape=RoundedRectangle|*
%AMROUNDEDRECTD35*
21,1,0.02008,0.02323,0,0,0.0*
21,1,0.00000,0.04331,0,0,0.0*
1,1,0.02008,0.00000,-0.01161*
1,1,0.02008,0.00000,-0.01161*
1,1,0.02008,0.00000,0.01161*
1,1,0.02008,0.00000,0.01161*
%
%ADD35ROUNDEDRECTD35*%
%ADD36R,0.09449X0.12992*%
G04:AMPARAMS|DCode=37|XSize=20.08mil|YSize=43.31mil|CornerRadius=10.04mil|HoleSize=0mil|Usage=FLASHONLY|Rotation=90.000|XOffset=0mil|YOffset=0mil|HoleType=Round|Shape=RoundedRectangle|*
%AMROUNDEDRECTD37*
21,1,0.02008,0.02323,0,0,90.0*
21,1,0.00000,0.04331,0,0,90.0*
1,1,0.02008,0.01161,0.00000*
1,1,0.02008,0.01161,0.00000*
1,1,0.02008,-0.01161,0.00000*
1,1,0.02008,-0.01161,0.00000*
%
%ADD37ROUNDEDRECTD37*%
%ADD38R,0.04724X0.04724*%
%ADD39R,0.03937X0.03937*%
%ADD40R,0.03937X0.03937*%
%ADD41R,0.02992X0.03150*%
%ADD75C,0.00600*%
%ADD76C,0.02300*%
%ADD77C,0.20000*%
%ADD78O,0.04724X0.03543*%
%ADD79C,0.05906*%
%ADD80R,0.05906X0.05906*%
%ADD81C,0.05906*%
%ADD82R,0.05906X0.05906*%
%ADD83O,0.07874X0.03937*%
%ADD84O,0.07874X0.03937*%
%ADD85C,0.06000*%
%ADD86O,0.10000X0.05000*%
%ADD87C,0.13780*%
%ADD88C,0.02200*%
G36*
X273988Y447012D02*
X273988Y447012D01*
X273238Y446262D01*
X272851Y445683D01*
X272716Y445000D01*
Y444500D01*
X272723Y444464D01*
X272342Y444000D01*
X251500D01*
Y438129D01*
X251409Y437909D01*
X249750Y436250D01*
X248091Y434591D01*
X247871Y434500D01*
X242000D01*
Y436500D01*
X244871D01*
X245091Y436409D01*
X245500Y436000D01*
X245959Y436459D01*
X245959Y436459D01*
X247635Y438134D01*
X249500Y440000D01*
Y446500D01*
X250500Y447500D01*
X272500D01*
X272614Y447614D01*
X273386Y447614D01*
X273988Y447012D01*
D02*
G37*
G36*
X277500Y443500D02*
X281371D01*
X281462Y443462D01*
X281500Y443371D01*
Y435284D01*
X277000D01*
X276964Y435277D01*
X276500Y435658D01*
Y440500D01*
X274830Y442170D01*
X275028Y442821D01*
X275183Y442851D01*
X275762Y443238D01*
X276149Y443817D01*
X276179Y443972D01*
X276788Y444212D01*
X277500Y443500D01*
D02*
G37*
G36*
X269717Y432717D02*
X267851Y430851D01*
X267851Y430851D01*
X265676Y428676D01*
X263591Y426591D01*
X263371Y426500D01*
X242500D01*
Y428500D01*
X244000D01*
X246409Y430909D01*
X246629Y431000D01*
X254000D01*
X256500Y433500D01*
X269717D01*
Y432717D01*
D02*
G37*
G36*
X246591Y421909D02*
X248909Y419591D01*
X249000Y419371D01*
Y414149D01*
Y413500D01*
X257000D01*
Y408247D01*
Y400500D01*
Y399500D01*
Y399129D01*
X256962Y399038D01*
X256871Y399000D01*
X254496D01*
Y405004D01*
X250500Y409000D01*
X246129D01*
X245909Y409091D01*
X244244Y410756D01*
X240500Y414500D01*
Y422000D01*
X246371D01*
X246591Y421909D01*
D02*
G37*
G36*
X284591Y364409D02*
X284613Y364387D01*
X284614Y363614D01*
X284500Y363500D01*
Y358129D01*
X284462Y358038D01*
X284371Y358000D01*
X276500D01*
X276310Y357810D01*
X276310Y357810D01*
X254591Y336091D01*
X254371Y336000D01*
X247129D01*
X247038Y336038D01*
X247000Y336129D01*
Y342000D01*
X255454Y364379D01*
X255461Y364386D01*
X255503Y364496D01*
X255620D01*
X255629Y364500D01*
X284371D01*
X284591Y364409D01*
D02*
G37*
G36*
X245000Y393000D02*
X245500Y392500D01*
X249000D01*
Y389000D01*
X245500Y385500D01*
Y368000D01*
X244000D01*
X241500Y365500D01*
X242000Y365000D01*
Y360452D01*
X241551Y360053D01*
X221000Y362500D01*
Y382000D01*
X240500Y401500D01*
X245000D01*
Y393000D01*
D02*
G37*
G36*
X220000Y361330D02*
Y338629D01*
X219962Y338538D01*
X219935Y338526D01*
X219908Y338500D01*
X202433D01*
X202016Y338932D01*
X203225Y370747D01*
X203495Y377871D01*
X203537Y377962D01*
X203629Y378000D01*
X220000D01*
Y361330D01*
D02*
G37*
G36*
X311415Y340317D02*
X311801Y339738D01*
X312380Y339352D01*
X313063Y339216D01*
Y332332D01*
Y328563D01*
X310500Y326000D01*
X302000D01*
Y325351D01*
Y315629D01*
X301909Y315409D01*
X298500Y312000D01*
X293500D01*
Y311351D01*
Y293629D01*
X293409Y293409D01*
X285805Y285805D01*
X275500Y275500D01*
X269000D01*
Y274851D01*
Y251938D01*
Y251000D01*
X266000Y248000D01*
X266000D01*
X264000Y246500D01*
X263307D01*
X263078Y247054D01*
X263262Y247238D01*
X263649Y247817D01*
X263784Y248500D01*
X263649Y249183D01*
X263262Y249762D01*
X263171Y249822D01*
X263095Y250595D01*
X263844Y251344D01*
X263844Y251344D01*
X264810Y252310D01*
X264810Y252310D01*
X265000Y252500D01*
X265000Y252864D01*
Y272500D01*
X265798Y273298D01*
X265798Y273298D01*
X286810Y294310D01*
X286810Y294310D01*
X287000Y294500D01*
X287000Y294864D01*
Y307500D01*
X286810Y307690D01*
X286810Y307690D01*
X286386Y308114D01*
Y308886D01*
X297500Y320000D01*
Y332537D01*
X297591Y333091D01*
D01*
Y333091D01*
X305409Y340909D01*
X305629Y341000D01*
X311279D01*
X311415Y340317D01*
D02*
G37*
G36*
X371877Y354900D02*
X370238Y353262D01*
X369851Y352683D01*
X369716Y352000D01*
X369851Y351317D01*
X370238Y350738D01*
X370817Y350352D01*
X371500Y350216D01*
X372183Y350352D01*
X372400Y350497D01*
X373000Y350176D01*
Y344861D01*
Y339139D01*
Y337629D01*
X372962Y337538D01*
X372871Y337500D01*
X342000D01*
X341810Y337310D01*
X341810Y337310D01*
X338541Y334041D01*
X331581Y327081D01*
X331499Y327052D01*
X331485Y327040D01*
X331467D01*
X331385Y327006D01*
X328223Y327172D01*
X326675Y327254D01*
X325167Y328762D01*
X324588Y329149D01*
X323905Y329284D01*
X323223Y329149D01*
X322644Y328762D01*
X322257Y328183D01*
X322242Y328107D01*
X321591Y327909D01*
X321000Y328500D01*
Y345371D01*
X321038Y345462D01*
X321129Y345500D01*
X341000D01*
X350909Y355409D01*
X351129Y355500D01*
X371628D01*
X371877Y354900D01*
D02*
G37*
G36*
X383462Y315962D02*
X383500Y315871D01*
Y290629D01*
X383462Y290538D01*
X383371Y290500D01*
X350129D01*
X350038Y290538D01*
X350000Y290629D01*
Y315871D01*
X350038Y315962D01*
X350129Y316000D01*
X383371D01*
X383462Y315962D01*
D02*
G37*
G36*
X252462Y324962D02*
X252500Y324871D01*
Y317629D01*
X252409Y317409D01*
X248673Y313673D01*
X242500Y307500D01*
Y301668D01*
Y283149D01*
Y282500D01*
X261000D01*
Y274942D01*
X255993Y274858D01*
X253373Y274815D01*
X235054Y274509D01*
X234949Y274552D01*
X234544Y274950D01*
X234500Y275055D01*
Y298371D01*
X234591Y298591D01*
X236284Y300284D01*
X241500Y305500D01*
Y324871D01*
X241538Y324962D01*
X241629Y325000D01*
X252371D01*
X252462Y324962D01*
D02*
G37*
G36*
X362962Y280462D02*
X363000Y280371D01*
Y264129D01*
X362909Y263909D01*
X362091Y263091D01*
X361871Y263000D01*
X355188D01*
X355000Y263546D01*
Y280000D01*
X355348Y280500D01*
X362871D01*
X362962Y280462D01*
D02*
G37*
G36*
X330462Y276962D02*
X330500Y276871D01*
Y270352D01*
Y268000D01*
X337500Y275000D01*
Y275500D01*
X344793D01*
X345000Y275000D01*
Y270000D01*
X343000D01*
X340500Y267500D01*
Y262500D01*
X344500D01*
Y261000D01*
X340500D01*
X337000Y264500D01*
X331000D01*
X330000Y265500D01*
X326629D01*
X326538Y265538D01*
X326500Y265629D01*
Y266168D01*
Y271166D01*
X326573Y271238D01*
X326959Y271817D01*
X327095Y272500D01*
X326959Y273183D01*
X326573Y273762D01*
X326500Y273810D01*
Y276871D01*
X326538Y276962D01*
X326629Y277000D01*
X330371D01*
X330462Y276962D01*
D02*
G37*
G36*
X345022Y259121D02*
X345076Y258900D01*
X344827Y258527D01*
X344726Y258020D01*
X344827Y257512D01*
X345114Y257082D01*
X345500Y256824D01*
Y255500D01*
X345909Y255091D01*
X345947Y255000D01*
X345909Y254909D01*
X345091Y254091D01*
X344871Y254000D01*
X326129D01*
X326074Y254023D01*
X326019D01*
X326008Y254077D01*
X325975Y254127D01*
X325017Y258913D01*
X325023Y258926D01*
Y258993D01*
X325060Y259049D01*
X325063Y259063D01*
X325409Y259409D01*
X325629Y259500D01*
X344809D01*
X345022Y259121D01*
D02*
G37*
G36*
X225500Y258500D02*
X227500Y256500D01*
X258000D01*
Y267716D01*
X258554Y267946D01*
X259000Y267500D01*
X262716D01*
X262946Y266946D01*
X261000Y265000D01*
Y255000D01*
X253000Y247000D01*
X252000D01*
X245000Y254000D01*
X221000D01*
X219500Y255500D01*
X212735Y284010D01*
X213235Y284500D01*
X225500D01*
Y258500D01*
D02*
G37*
G36*
X306978Y318844D02*
X307020Y318849D01*
X307056Y318827D01*
X307106Y318820D01*
X307421Y318574D01*
X307440Y318528D01*
X307470Y318498D01*
X307475Y318456D01*
X307500Y318412D01*
Y303500D01*
X305500Y301500D01*
Y282500D01*
X305690Y282310D01*
X305690Y282310D01*
X307187Y280813D01*
X307892Y280108D01*
X307892Y280108D01*
X309909Y278091D01*
X310000Y277871D01*
Y275832D01*
Y266168D01*
Y265500D01*
X311153Y260320D01*
X312004Y256500D01*
X309095Y253591D01*
X308875Y253500D01*
X288000D01*
X280591Y246091D01*
X280371Y246000D01*
X273000D01*
Y249500D01*
X271500Y251000D01*
X272094Y251593D01*
X272094Y251593D01*
X275909Y255409D01*
X276129Y255500D01*
X308000D01*
X306337Y257163D01*
X306337Y257163D01*
X298500Y265000D01*
X276629D01*
X276538Y265038D01*
X276500Y265129D01*
Y269000D01*
X278909Y271409D01*
X279129Y271500D01*
X301000D01*
Y301626D01*
X299000Y303626D01*
X300374Y305000D01*
X305000D01*
X305292Y312893D01*
X305495Y318371D01*
X305509Y318402D01*
X305513Y318490D01*
X305598Y318511D01*
X305625Y318531D01*
X306930Y318857D01*
X306978Y318844D01*
D02*
G37*
%LPC*%
G36*
X242500Y396929D02*
X241915Y396813D01*
X241419Y396481D01*
X241087Y395985D01*
X240971Y395400D01*
X241087Y394815D01*
X241419Y394319D01*
X241519Y394219D01*
X242015Y393887D01*
X242600Y393771D01*
X243185Y393887D01*
X243681Y394219D01*
X244013Y394715D01*
X244129Y395300D01*
X244013Y395885D01*
X243681Y396381D01*
X243581Y396481D01*
X243085Y396813D01*
X242500Y396929D01*
D02*
G37*
G36*
X250000Y324284D02*
X246500D01*
X245817Y324149D01*
X245238Y323762D01*
X244851Y323183D01*
X244716Y322500D01*
X244851Y321817D01*
X245238Y321238D01*
X245817Y320851D01*
X246500Y320716D01*
X250000D01*
X250683Y320851D01*
X251262Y321238D01*
X251648Y321817D01*
X251784Y322500D01*
X251648Y323183D01*
X251262Y323762D01*
X250683Y324149D01*
X250000Y324284D01*
D02*
G37*
%LPD*%
D14*
X313000Y252900D02*
X313100Y252800D01*
X243500Y358900D02*
X243600Y358800D01*
X242500Y395400D02*
X242600Y395300D01*
X574800Y305900D02*
X574900Y306000D01*
D16*
X563000Y288597D02*
X588980Y262617D01*
X563000Y288597D02*
Y298626D01*
X590694Y467198D02*
X599500Y458391D01*
X577086Y481356D02*
X584094Y474348D01*
X549500Y481356D02*
X577086D01*
X599500Y444000D02*
Y458391D01*
X209039Y244000D02*
X257500D01*
X201904Y251135D02*
X209039Y244000D01*
X450929Y282071D02*
X451000Y282142D01*
X445571Y282071D02*
X450929D01*
X445500Y282000D02*
X445571Y282071D01*
X266500Y372905D02*
Y378000D01*
X597038Y383500D02*
X597590D01*
X597000D02*
X597038D01*
X454811Y477500D02*
X455000D01*
X454399Y477911D02*
X454811Y477500D01*
X450000Y477911D02*
X454399D01*
X450000Y478411D02*
Y486000D01*
X235233Y428106D02*
X238678D01*
X563000Y306500D02*
Y312000D01*
X477046Y383590D02*
X479910D01*
X477000D02*
X477046D01*
X477322Y383911D02*
Y391678D01*
X544547Y412830D02*
X545716Y414000D01*
X542020Y412830D02*
X544547D01*
X540689Y411500D02*
X542020Y412830D01*
X540500Y411500D02*
X540689D01*
X258000Y446906D02*
X266621D01*
X267500Y447784D01*
Y461051D01*
X261642Y466910D02*
X267500Y461051D01*
X261642Y466910D02*
Y467500D01*
X275000Y444500D02*
X277500Y442000D01*
X274500Y444500D02*
X275000D01*
X274500D02*
Y445000D01*
X279000Y449500D02*
Y467500D01*
X274500Y445000D02*
X279000Y449500D01*
X486500Y442000D02*
Y450358D01*
X406537Y395803D02*
X410564D01*
X456761Y442000D02*
X461500D01*
X410564Y395803D02*
X456761Y442000D01*
X402621Y244000D02*
X419904D01*
X367500D02*
X402621D01*
X419904D02*
X423319Y247415D01*
Y249585D01*
X426537Y252803D01*
X434016D01*
X438319Y248500D01*
X451000Y410000D02*
X451112Y410112D01*
X455944D01*
X234394Y428106D02*
X235233D01*
X455944Y410112D02*
X457105D01*
X459515Y407701D01*
Y394025D02*
Y407701D01*
X455944Y390453D02*
X459515Y394025D01*
X455944Y383590D02*
Y390453D01*
X452022Y368478D02*
X456000D01*
X258000Y423906D02*
X260498Y421408D01*
X268714D01*
X270000Y420121D01*
Y396673D02*
Y420121D01*
X255811Y382484D02*
X270000Y396673D01*
X255811Y381500D02*
Y382484D01*
X200685Y428106D02*
X233916D01*
X234000Y428191D01*
Y428500D01*
X234394Y428106D01*
X248500Y456500D02*
X254358D01*
X232500D02*
X248500D01*
X229000Y453000D02*
X232500Y456500D01*
X229000Y434339D02*
Y453000D01*
Y434339D02*
X235233Y428106D01*
X313063Y341000D02*
Y360937D01*
X303563Y370437D02*
X313063Y360937D01*
X279500Y370437D02*
X303563D01*
X277031Y372905D02*
X279500Y370437D01*
X266500Y372905D02*
X277031D01*
X255811Y380516D02*
Y381500D01*
X248000Y372705D02*
X255811Y380516D01*
X248000Y349879D02*
Y372705D01*
X247121Y349000D02*
X248000Y349879D01*
X245500Y349000D02*
X247121D01*
X235500Y339000D02*
X245500Y349000D01*
X235500Y335000D02*
Y339000D01*
Y335000D02*
X238888Y331612D01*
X244372D01*
X245984Y330000D01*
X253000D01*
X256000Y327000D01*
Y314500D02*
Y327000D01*
X255766Y314266D02*
X256000Y314500D01*
X255766Y308998D02*
Y314266D01*
X253268Y306500D02*
X255766Y308998D01*
X253268Y305516D02*
Y306500D01*
X248051Y300299D02*
X253268Y305516D01*
X248051Y289500D02*
Y300299D01*
X259000Y267626D02*
X263000Y271626D01*
X257500Y289500D02*
X263000Y284000D01*
Y271626D02*
Y284000D01*
X248051Y289500D02*
X257500D01*
Y244000D02*
X262000Y248500D01*
X312832Y315431D02*
Y324018D01*
X311032Y313631D02*
X312832Y315431D01*
X310901Y313631D02*
X311032D01*
X310110Y312840D02*
X310901Y313631D01*
X310110Y302273D02*
Y312840D01*
Y302273D02*
X310410Y301973D01*
Y297376D02*
Y301973D01*
X323811Y271000D02*
X325311Y272500D01*
X312832Y324018D02*
X315190D01*
X320478Y318729D01*
Y317568D02*
Y318729D01*
X325802Y312840D02*
X327427D01*
X345008Y330421D01*
Y330500D01*
X472500Y248500D02*
Y258500D01*
X544856Y486000D02*
X549500Y481356D01*
X487000Y486000D02*
X544856D01*
X474500D02*
X487000D01*
X474311D02*
X474500D01*
X473811Y485500D02*
X474311Y486000D01*
X462500Y485500D02*
X473811D01*
X449811Y486000D02*
X450000D01*
X449311Y485500D02*
X449811Y486000D01*
X438000Y485500D02*
X449311D01*
X435019Y488481D02*
X438000Y485500D01*
X346981Y488481D02*
X435019D01*
X330500Y472000D02*
X346981Y488481D01*
X330360Y472140D02*
X330500Y472000D01*
X330360Y472140D02*
Y481140D01*
X325000Y486500D02*
X330360Y481140D01*
X274144Y486500D02*
X325000D01*
X269000Y481356D02*
X274144Y486500D01*
X404016Y367197D02*
X408319Y371500D01*
X404016Y325803D02*
Y367197D01*
Y325803D02*
X408319Y321500D01*
X365621Y283500D02*
X382000D01*
X398319Y299819D01*
Y321500D01*
X408319D01*
X409500Y301500D02*
X419500D01*
X398319Y290319D02*
X409500Y301500D01*
X398319Y268500D02*
Y290319D01*
Y268500D02*
X399511D01*
X402329Y265682D01*
X402439D01*
X403500Y264621D01*
Y244879D02*
Y264621D01*
X402621Y244000D02*
X403500Y244879D01*
X366500Y245000D02*
X367500Y244000D01*
X366500Y245000D02*
Y282621D01*
X365621Y283500D02*
X366500Y282621D01*
X355563Y283500D02*
X365621D01*
X346563Y274500D02*
X355563Y283500D01*
X472500Y258500D02*
X479500Y265500D01*
X485500D01*
X490000Y261000D01*
Y244379D02*
Y261000D01*
Y244379D02*
X490879Y243500D01*
X513085D01*
X517470Y247885D01*
Y250055D01*
X521157Y253742D01*
Y257657D01*
X522000Y258500D01*
X556126Y292626D02*
Y298626D01*
X522000Y258500D02*
X556126Y292626D01*
X509500Y300942D02*
Y301500D01*
X506100Y297542D02*
X509500Y300942D01*
X506100Y291635D02*
Y297542D01*
X495086Y280621D02*
X506100Y291635D01*
X493379Y280621D02*
X495086D01*
X492500Y281500D02*
X493379Y280621D01*
X492500Y281500D02*
Y286654D01*
X499500Y293654D01*
Y301500D01*
X576031Y323000D02*
X578000D01*
X551050Y303702D02*
X556126Y298626D01*
X551050Y303702D02*
Y326015D01*
X553649Y328614D01*
X565102D01*
X570716Y323000D01*
X576031D01*
X572713Y326319D02*
X576031Y323000D01*
X572713Y326319D02*
Y329375D01*
X584330Y340992D01*
X585401D01*
X597409Y353000D01*
X598000D01*
X583287Y312019D02*
Y324681D01*
X596681D01*
X597000Y325000D01*
X598000Y353000D02*
X598591D01*
X601712Y356122D01*
Y379378D01*
X597590Y383500D02*
X601712Y379378D01*
X597038Y383500D02*
X599500Y385962D01*
Y414000D01*
Y424000D01*
Y434000D01*
Y444000D01*
X371500Y352000D02*
X385137Y365637D01*
Y374403D01*
X396537Y385803D01*
X398707D01*
X402622Y389718D01*
Y391888D01*
X406537Y395803D01*
X430915Y319000D02*
X459500D01*
X425197Y313282D02*
X430915Y319000D01*
X425197Y299718D02*
Y313282D01*
Y299718D02*
X429000Y295915D01*
Y273000D02*
Y295915D01*
X482121Y248121D02*
X482500Y248500D01*
X482121Y244000D02*
Y248121D01*
X432819Y244000D02*
X482121D01*
X428319Y248500D02*
X432819Y244000D01*
X324455Y314188D02*
X325802Y312840D01*
X320478Y316544D02*
X322834Y314188D01*
X325802Y302273D02*
Y312840D01*
X322834Y314188D02*
X324455D01*
X320478Y316544D02*
Y317568D01*
Y293074D02*
Y297489D01*
Y298513D02*
X320713Y298748D01*
X322277D01*
X325802Y302273D01*
X320478Y297489D02*
Y298513D01*
X424500Y268500D02*
X429000Y273000D01*
X418319Y268500D02*
X424500D01*
X502000Y334500D02*
X504311D01*
X506311Y332500D01*
X506500D01*
X504000Y293000D02*
Y319000D01*
X497500Y286500D02*
X504000Y293000D01*
X474500Y442000D02*
Y450358D01*
X432500Y345500D02*
Y354000D01*
X439358D01*
X482500Y248500D02*
Y258500D01*
X583587Y386555D02*
X584500Y385642D01*
X583587Y386555D02*
Y390156D01*
X578121Y395621D02*
X583587Y390156D01*
X578121Y395621D02*
X578500Y396000D01*
Y412500D01*
X572650Y418350D02*
X578500Y412500D01*
X551649Y418350D02*
X572650D01*
X550649Y417350D02*
X551649Y418350D01*
X549295Y417350D02*
X550649D01*
X545945Y414000D02*
X549295Y417350D01*
X545716Y414000D02*
X545945D01*
X520681Y421500D02*
X524984Y425803D01*
X535528D01*
X537831Y423500D01*
X545858D01*
Y434000D01*
X545929Y434071D01*
Y444429D01*
X546000Y444500D01*
X476990Y395029D02*
X477322Y394698D01*
X476022Y410112D02*
X480889D01*
X477046Y383590D02*
X477281Y383824D01*
Y383871D01*
X477322Y383911D01*
X438717Y396500D02*
X439000Y396217D01*
Y391879D02*
Y396217D01*
Y391879D02*
X439879Y391000D01*
X450839D01*
X454839Y395000D01*
X456000D01*
X448910Y450358D02*
X449500D01*
X445296Y453972D02*
X448910Y450358D01*
X400472Y453972D02*
X445296D01*
X380000Y433500D02*
X400472Y453972D01*
X277000Y433500D02*
X380000D01*
X432500Y370500D02*
Y379000D01*
X447268Y336500D02*
X453500D01*
X439858Y343910D02*
X447268Y336500D01*
X439858Y343910D02*
Y344500D01*
X430000Y343000D02*
X432500Y345500D01*
X430000Y334500D02*
Y343000D01*
X246500Y322500D02*
X250000D01*
X438688Y345670D02*
X439858Y344500D01*
X437466Y345721D02*
X437517Y345670D01*
X432500Y345500D02*
X432689D01*
X437517Y345670D02*
X438688D01*
X432910Y345721D02*
X437466D01*
X432689Y345500D02*
X432910Y345721D01*
X471500Y282142D02*
Y291000D01*
X439358Y354000D02*
X439858Y353500D01*
X429000Y396500D02*
X438717D01*
X429172Y405500D02*
X438717D01*
X323905Y327500D02*
X325590Y325816D01*
Y317624D02*
Y325816D01*
X451500Y359000D02*
X454910Y355590D01*
X455944D01*
X453500Y336500D02*
X454741Y337741D01*
Y340244D01*
X454976Y340478D01*
X456000D01*
X477344Y337156D02*
X479000Y335500D01*
X477344Y337156D02*
Y340176D01*
X477109Y340410D02*
X477344Y340176D01*
X476192Y340410D02*
X477109D01*
X479232Y357500D02*
X480500D01*
X477321Y355590D02*
X479232Y357500D01*
X476022Y355590D02*
X477321D01*
X478500Y364000D02*
Y366102D01*
X477450Y367152D02*
X478500Y366102D01*
X477450Y367152D02*
Y368176D01*
X477216Y368410D02*
X477450Y368176D01*
X476192Y368410D02*
X477216D01*
X479910Y383590D02*
X480000Y383500D01*
X451500D02*
X451590Y383590D01*
X455944D01*
X432500Y370500D02*
X439358D01*
X432500Y379000D02*
X439358D01*
X477322Y391678D02*
X478500Y390500D01*
X477322Y391678D02*
Y394698D01*
X461500Y442000D02*
Y450358D01*
X449500Y442000D02*
Y450358D01*
X437500Y442000D02*
Y450358D01*
X487000Y478411D02*
Y486000D01*
X474500Y478411D02*
Y485500D01*
X462500Y477911D02*
Y485500D01*
X438000Y477911D02*
Y485500D01*
X253856Y481356D02*
X269000D01*
X245500Y473000D02*
X253856Y481356D01*
X245500Y459500D02*
Y473000D01*
Y459500D02*
X248500Y456500D01*
X261642Y467500D02*
X279000D01*
Y481356D01*
X323811Y271000D02*
Y271984D01*
X317500Y278295D02*
X323811Y271984D01*
X317500Y278295D02*
Y290095D01*
X320478Y293074D01*
X482500Y282142D02*
Y291000D01*
X461000Y282142D02*
Y291000D01*
X451000Y282142D02*
Y290500D01*
X578500Y293768D02*
Y294004D01*
Y293768D02*
X578793Y293474D01*
X579030D01*
X579504Y293000D01*
X587000D01*
X589000Y295000D01*
X597000D01*
X578207Y293711D02*
X578500Y294004D01*
X578207Y291085D02*
Y293711D01*
X577621Y290500D02*
X578207Y291085D01*
X574000Y290500D02*
X577621D01*
X569500Y295000D02*
X574000Y290500D01*
X569500Y295000D02*
Y305621D01*
X568621Y306500D02*
X569500Y305621D01*
X563000Y306500D02*
X568621D01*
X578000Y328000D02*
X579969D01*
X583287Y324681D01*
X578500Y307232D02*
X583287Y312019D01*
X578500Y306996D02*
Y307232D01*
X573500Y351000D02*
X583858D01*
X584000Y350858D01*
X574642Y385642D02*
X584500D01*
X556126Y298626D02*
X563000D01*
D21*
X200685Y428106D02*
D03*
D22*
X238678Y441492D02*
D03*
Y434799D02*
D03*
Y428106D02*
D03*
Y421413D02*
D03*
Y414720D02*
D03*
D23*
X245500Y262500D02*
D03*
Y274705D02*
D03*
D24*
X201867Y290500D02*
D03*
Y331000D02*
D03*
D25*
X346051Y265500D02*
D03*
Y261760D02*
D03*
Y258020D02*
D03*
X355500D02*
D03*
Y265500D02*
D03*
D26*
X323905Y286000D02*
D03*
X312094D02*
D03*
X323905Y327500D02*
D03*
X312094D02*
D03*
X255811Y381500D02*
D03*
X244000D02*
D03*
X253268Y306500D02*
D03*
X241457D02*
D03*
X323811Y271000D02*
D03*
X312000D02*
D03*
D27*
X266500Y372905D02*
D03*
Y361094D02*
D03*
X258000Y435094D02*
D03*
Y446906D02*
D03*
Y423906D02*
D03*
Y412094D02*
D03*
D28*
X438717Y405500D02*
D03*
X446000D02*
D03*
X438717Y396500D02*
D03*
X446000D02*
D03*
X486500Y398000D02*
D03*
X493784D02*
D03*
X486500Y408000D02*
D03*
X493784D02*
D03*
X261642Y467500D02*
D03*
X254358D02*
D03*
X277000Y433500D02*
D03*
X269717D02*
D03*
X261642Y456500D02*
D03*
X254358D02*
D03*
X439858Y353500D02*
D03*
X447142D02*
D03*
X439858Y344500D02*
D03*
X447142D02*
D03*
X486500Y342500D02*
D03*
X493784D02*
D03*
Y353000D02*
D03*
X486500D02*
D03*
X546000Y444500D02*
D03*
X553284D02*
D03*
X439358Y379000D02*
D03*
X446642D02*
D03*
X439358Y370500D02*
D03*
X446642D02*
D03*
X545858Y434000D02*
D03*
X553142D02*
D03*
X493784Y371000D02*
D03*
X486500D02*
D03*
X545858Y423500D02*
D03*
X553142D02*
D03*
X545716Y414000D02*
D03*
X553000D02*
D03*
X493784Y381500D02*
D03*
X486500D02*
D03*
D29*
Y450358D02*
D03*
Y457642D02*
D03*
X474500Y450358D02*
D03*
Y457642D02*
D03*
X461500Y450358D02*
D03*
Y457642D02*
D03*
X449500Y450358D02*
D03*
Y457642D02*
D03*
X437500Y450358D02*
D03*
Y457642D02*
D03*
X584500Y385642D02*
D03*
Y378358D02*
D03*
X461000Y282142D02*
D03*
Y274858D02*
D03*
X451000Y282142D02*
D03*
Y274858D02*
D03*
X482500Y282142D02*
D03*
Y274858D02*
D03*
X471500Y282142D02*
D03*
Y274858D02*
D03*
X584000Y350858D02*
D03*
Y358142D02*
D03*
X563000Y317717D02*
D03*
Y325000D02*
D03*
D30*
X245984Y339055D02*
D03*
Y330000D02*
D03*
Y320945D02*
D03*
D31*
X270394Y330000D02*
D03*
D32*
X312004Y256500D02*
D03*
X324996D02*
D03*
X242504Y362500D02*
D03*
X255496D02*
D03*
X241504Y399000D02*
D03*
X254496D02*
D03*
D33*
X578500Y306996D02*
D03*
Y294004D02*
D03*
D34*
X317956Y307557D02*
D03*
D35*
X320478Y297489D02*
D03*
X315478D02*
D03*
X310410Y297376D02*
D03*
X325590Y297545D02*
D03*
Y317624D02*
D03*
X310478Y317568D02*
D03*
X315478D02*
D03*
X320478D02*
D03*
D36*
X466011Y402478D02*
D03*
Y347956D02*
D03*
Y375956D02*
D03*
D37*
X476079Y405000D02*
D03*
Y400000D02*
D03*
X476192Y394932D02*
D03*
X476022Y410112D02*
D03*
X455944D02*
D03*
X456000Y395000D02*
D03*
Y400000D02*
D03*
Y405000D02*
D03*
X476079Y350478D02*
D03*
Y345478D02*
D03*
X476192Y340410D02*
D03*
X476022Y355590D02*
D03*
X455944D02*
D03*
X456000Y340478D02*
D03*
Y345478D02*
D03*
Y350478D02*
D03*
X476079Y378478D02*
D03*
Y373478D02*
D03*
X476192Y368410D02*
D03*
X476022Y383590D02*
D03*
X455944D02*
D03*
X456000Y368478D02*
D03*
Y373478D02*
D03*
Y378478D02*
D03*
D38*
X487000Y477911D02*
D03*
Y470431D02*
D03*
X474500Y477911D02*
D03*
Y470431D02*
D03*
X462500Y477911D02*
D03*
Y470431D02*
D03*
X450000Y477911D02*
D03*
Y470431D02*
D03*
X438000Y477911D02*
D03*
Y470431D02*
D03*
D39*
X335500Y265500D02*
D03*
Y257626D02*
D03*
X299000Y311500D02*
D03*
Y303626D02*
D03*
X279500Y362563D02*
D03*
Y370437D02*
D03*
X259000Y267626D02*
D03*
Y275500D02*
D03*
X276000Y275437D02*
D03*
Y267563D02*
D03*
X563000Y298626D02*
D03*
Y306500D02*
D03*
D40*
X346563Y274500D02*
D03*
X354437D02*
D03*
X313063Y341000D02*
D03*
X320937D02*
D03*
X248051Y289500D02*
D03*
X240177D02*
D03*
D41*
X350992Y330500D02*
D03*
X345008D02*
D03*
D75*
X449500Y457642D02*
Y469931D01*
X450000Y470431D01*
X584094Y474348D02*
Y475935D01*
X583353Y476676D02*
X584094Y475935D01*
Y474348D02*
X585061Y475315D01*
X592315D01*
Y474270D02*
Y475315D01*
X446250Y405250D02*
X455750D01*
X446000Y405500D02*
X446250Y405250D01*
X234852Y262500D02*
X245500D01*
X455836Y400164D02*
X456000Y400000D01*
X452935Y400164D02*
X455836D01*
X452098Y401000D02*
X452935Y400164D01*
X450000Y401000D02*
X452098D01*
X446000Y405500D02*
X446250Y405750D01*
Y410250D01*
X446500Y410500D01*
X447142Y344500D02*
Y345173D01*
X445300Y347015D02*
X447142Y345173D01*
X445300Y347015D02*
Y349000D01*
X447142Y353500D02*
X447893Y354252D01*
Y356960D01*
X448500Y357567D01*
Y358000D01*
X446642Y369910D02*
Y370500D01*
X441247Y364514D02*
X446642Y369910D01*
X437664Y364514D02*
X441247D01*
X534644Y476500D02*
X539500Y481356D01*
X527000Y476500D02*
X534644D01*
X489000Y438500D02*
X527000Y476500D01*
X488144Y440000D02*
X529500Y481356D01*
X460672Y440000D02*
X488144D01*
X460869Y438500D02*
X489000D01*
X429869Y407500D02*
X460869Y438500D01*
X446642Y370500D02*
X451860D01*
X454839Y373478D01*
X240444Y443259D02*
X244259D01*
X253000Y452000D02*
X259500D01*
X244259Y443259D02*
X253000Y452000D01*
X379331Y486831D02*
X390147D01*
X378000Y485500D02*
X379331Y486831D01*
X390147D02*
X394000Y482978D01*
X512000Y248500D02*
X518147Y254647D01*
Y263147D01*
X493358Y274858D02*
X531751Y313251D01*
X596869Y325132D02*
X597000Y325000D01*
X525233Y401500D02*
X531380Y407647D01*
X520681Y401500D02*
X525233D01*
X533206Y407647D02*
X544104Y418546D01*
X531380Y407647D02*
X533206D01*
X530681Y411500D02*
X538927Y419746D01*
X547169D01*
X544104Y418546D02*
X547666D01*
X423547Y299034D02*
X425000Y297582D01*
X423547Y299034D02*
Y313966D01*
X425000Y285181D02*
Y297582D01*
Y315419D02*
Y321000D01*
X423547Y313966D02*
X425000Y315419D01*
X424849Y321151D02*
X425000Y321000D01*
X425048Y321352D02*
X468149D01*
X424849Y321151D02*
X425048Y321352D01*
X435000Y265181D02*
Y307500D01*
X436633Y308633D02*
X439500Y311500D01*
X436133Y308633D02*
X436633D01*
X435000Y307500D02*
X436133Y308633D01*
X433311Y299862D02*
X433800Y300351D01*
Y308800D01*
X434752Y309752D01*
X433311Y265189D02*
Y299862D01*
X434752Y309752D02*
Y310248D01*
X418319Y248500D02*
X435000Y265181D01*
X423122Y255000D02*
X433311Y265189D01*
X408319Y268500D02*
X425000Y285181D01*
X389500Y261000D02*
Y288000D01*
Y261000D02*
X398319Y252181D01*
X389500Y288000D02*
X413000Y311500D01*
X479501Y316501D02*
X509500Y346500D01*
X479501Y311501D02*
Y316501D01*
X509500Y346500D02*
X543000D01*
X479500Y311500D02*
X479501Y311501D01*
X495000Y316000D02*
X500500Y321500D01*
X520681D01*
X475000Y308000D02*
Y314500D01*
X468149Y321352D02*
X475000Y314500D01*
Y308000D02*
X477647Y305353D01*
X485647D01*
X489500Y301500D01*
X429372Y408700D02*
X460672Y440000D01*
X547666Y418546D02*
X548120Y419000D01*
X549022Y421599D02*
Y427374D01*
X548120Y419000D02*
X549149D01*
X547169Y419746D02*
X549022Y421599D01*
Y427374D02*
X551519Y429871D01*
X380833Y432000D02*
X406000D01*
X380683Y431850D02*
X380833Y432000D01*
X350000Y430000D02*
X351850Y431850D01*
X380683D01*
X351200Y427200D02*
X354500Y430500D01*
X397500D01*
X406000Y432000D02*
X408319Y429681D01*
X427172Y351500D02*
X436672Y361000D01*
X408319Y351500D02*
X427172D01*
X436672Y361000D02*
X478328D01*
X230500Y248500D02*
X242000D01*
X553500Y325000D02*
X563000D01*
X523500Y326500D02*
X537149D01*
X543500Y288500D02*
Y342500D01*
X542000Y288697D02*
Y335500D01*
X540500Y289851D02*
Y331500D01*
X518147Y263147D02*
X543500Y288500D01*
X512000Y258697D02*
X542000Y288697D01*
X537149Y326500D02*
X539000Y324648D01*
X540148Y289500D02*
X540500Y289851D01*
X539000Y295500D02*
Y324648D01*
X502000Y258500D02*
X539000Y295500D01*
X425972Y403704D02*
Y406997D01*
X427674Y408700D01*
X429372D01*
X400500Y459500D02*
Y476480D01*
X400148Y476831D02*
X400500Y476480D01*
X387853Y476831D02*
X400148D01*
X384000Y472978D02*
X387853Y476831D01*
X388500Y459000D02*
Y472500D01*
X388978Y472978D01*
X394000D01*
X378000Y458000D02*
Y485500D01*
X379200Y461000D02*
Y482500D01*
X379678Y482978D02*
X384000D01*
X379200Y461000D02*
X383500Y456700D01*
X379200Y482500D02*
X379678Y482978D01*
X383500Y456500D02*
Y456700D01*
X289000Y448000D02*
X300500Y436500D01*
X289000Y448000D02*
Y481356D01*
X392319Y417500D02*
X398319Y411500D01*
X372000Y417500D02*
X392319D01*
X404319Y407500D02*
X408319Y411500D01*
X372000Y407500D02*
X404319D01*
X398319Y421500D02*
X398500Y421681D01*
Y429500D01*
X397500Y430500D02*
X398500Y429500D01*
X351200Y408300D02*
Y427200D01*
Y408300D02*
X362000Y397500D01*
X408319Y421500D02*
Y429681D01*
X350000Y399500D02*
Y430000D01*
Y399500D02*
X362000Y387500D01*
X493784Y352410D02*
Y353000D01*
X490620Y349246D02*
X493784Y352410D01*
X483467Y349246D02*
X490620D01*
X482234Y350478D02*
X483467Y349246D01*
X476079Y350478D02*
X482234D01*
X493784Y371000D02*
Y371590D01*
X490620Y374754D02*
X493784Y371590D01*
X484362Y374754D02*
X490620D01*
X483086Y373478D02*
X484362Y374754D01*
X476079Y373478D02*
X483086D01*
X493784Y380909D02*
Y381500D01*
X490620Y377746D02*
X493784Y380909D01*
X483217Y377746D02*
X490620D01*
X482484Y378478D02*
X483217Y377746D01*
X476079Y378478D02*
X482484D01*
X261642Y454847D02*
Y456500D01*
X260042Y453247D02*
X261642Y454847D01*
X260042Y452542D02*
Y453247D01*
X259500Y452000D02*
X260042Y452542D01*
X238678Y441492D02*
X240444Y443259D01*
X574929Y378429D02*
X596929D01*
X543000Y346500D02*
X574929Y378429D01*
X530681Y317193D02*
Y321500D01*
Y317193D02*
X531751Y316123D01*
Y313251D02*
Y316123D01*
X482500Y274858D02*
X493358D01*
X495000Y299500D02*
Y316000D01*
X490500Y295000D02*
X495000Y299500D01*
X480551Y295000D02*
X490500D01*
X475526Y300025D02*
X480551Y295000D01*
X475526Y300025D02*
Y304622D01*
X473148Y307000D02*
X475526Y304622D01*
X468000Y307000D02*
X473148D01*
X467500Y306500D02*
X468000Y307000D01*
X467500Y304949D02*
Y306500D01*
X465647Y303096D02*
X467500Y304949D01*
X465647Y292974D02*
Y303096D01*
Y292974D02*
X466000Y292622D01*
Y279268D02*
Y292622D01*
X461590Y274858D02*
X466000Y279268D01*
X461000Y274858D02*
X461590D01*
X456671Y292171D02*
X464447Y299947D01*
X464742Y303888D02*
Y306742D01*
X464447Y299947D02*
Y303593D01*
X464742Y303888D01*
X477000Y276000D02*
Y288328D01*
X469500Y295828D02*
X477000Y288328D01*
X471500Y274858D02*
X475858D01*
X477000Y276000D01*
X469500Y295828D02*
Y301500D01*
X464742Y306742D02*
X469500Y311500D01*
X456671Y282748D02*
Y292171D01*
X451945Y278022D02*
X456671Y282748D01*
X451945Y275803D02*
Y278022D01*
X451000Y274858D02*
X451945Y275803D01*
X413000Y311500D02*
X419500D01*
X398319Y248500D02*
Y252181D01*
X429500Y311500D02*
X433500D01*
X434752Y310248D01*
X414819Y255000D02*
X423122D01*
X408319Y248500D02*
X414819Y255000D01*
X520681Y330064D02*
Y331500D01*
Y330064D02*
X522598Y328147D01*
Y327402D02*
Y328147D01*
Y327402D02*
X523500Y326500D01*
X530681Y331500D02*
X531181Y332000D01*
X540000D01*
X540500Y331500D01*
X537551Y289500D02*
X540148D01*
X508147Y260096D02*
X537551Y289500D01*
X508147Y254647D02*
Y260096D01*
X502000Y248500D02*
X508147Y254647D01*
X520681Y341500D02*
X524181Y338000D01*
X524500D01*
X525500Y337000D01*
X540500D01*
X542000Y335500D01*
X512000Y258500D02*
Y258697D01*
X530681Y341500D02*
X536808D01*
X538308Y343000D01*
X543000D01*
X543500Y342500D01*
X347500Y472000D02*
X347989Y472489D01*
X373511D01*
X374000Y472978D01*
Y482978D01*
X419129Y389457D02*
X427172Y397500D01*
Y406328D01*
X419129Y386861D02*
Y389457D01*
X408477Y386210D02*
X425972Y403704D01*
X409915Y377647D02*
X419129Y386861D01*
X404466Y377647D02*
X409915D01*
X478328Y361000D02*
X485748Y368420D01*
Y370249D02*
X486500Y371000D01*
X485748Y368420D02*
Y370249D01*
X476079Y352382D02*
X476697Y353000D01*
X486500D01*
X398319Y371500D02*
X404466Y377647D01*
X427172Y406328D02*
X428343Y407500D01*
X429869D01*
X398319Y381500D02*
X402870D01*
X407580Y386210D01*
X408477D01*
X514852Y450500D02*
X547874D01*
X514500Y450148D02*
X514852Y450500D01*
X514500Y417681D02*
Y450148D01*
X547874Y450500D02*
X553284Y445090D01*
X514500Y417681D02*
X520681Y411500D01*
X388000Y401500D02*
X398319D01*
X385500Y399000D02*
X388000Y401500D01*
X385500Y381000D02*
Y399000D01*
X372000Y367500D02*
X385500Y381000D01*
X554500Y344500D02*
X563000Y353000D01*
X578268D01*
X583410Y358142D01*
X584000D01*
X526828Y387647D02*
X530681Y391500D01*
X514114Y387647D02*
X526828D01*
X503761Y398000D02*
X514114Y387647D01*
X493784Y398000D02*
X503761D01*
X504181Y408000D02*
X520681Y391500D01*
X493784Y408000D02*
X504181D01*
X514409Y381500D02*
X520681D01*
X486500Y353590D02*
X514409Y381500D01*
X486500Y353000D02*
Y353590D01*
X476079Y345478D02*
X484112D01*
X486500Y343091D01*
Y342500D02*
Y343091D01*
X493784Y342500D02*
Y343091D01*
X507957Y357264D01*
Y364225D02*
X519085Y375353D01*
X507957Y357264D02*
Y364225D01*
X524534Y375353D02*
X530681Y381500D01*
X519085Y375353D02*
X524534D01*
X553000Y413410D02*
Y414000D01*
X541090Y401500D02*
X553000Y413410D01*
X530681Y401500D02*
X541090D01*
X553000Y414000D02*
X568004D01*
X553142Y422993D02*
Y423500D01*
X549149Y419000D02*
X553142Y422993D01*
Y432347D02*
Y434000D01*
X551519Y430724D02*
X553142Y432347D01*
X551519Y429871D02*
Y430724D01*
X553284Y444500D02*
Y445090D01*
X362000Y367500D02*
X372000D01*
X362000Y377500D02*
X372000D01*
X362000Y387500D02*
X372000D01*
X362000Y397500D02*
X372000D01*
X362000Y407500D02*
X372000D01*
X362000Y417500D02*
X372000D01*
X361500Y332000D02*
X371500D01*
X350992Y330421D02*
Y330500D01*
Y330421D02*
X352188Y329225D01*
X354275D01*
X361500Y322000D01*
X371500D02*
Y332000D01*
X361500Y322000D02*
X371500D01*
X348599Y259098D02*
X349510Y260009D01*
X346051Y258020D02*
X347129Y259098D01*
X348599D01*
X349510Y260009D02*
Y263511D01*
X348983Y264038D02*
X349510Y263511D01*
X348694Y264038D02*
X348983D01*
X347232Y265500D02*
X348694Y264038D01*
X346051Y265500D02*
X347232D01*
X447142Y344500D02*
X447851Y345209D01*
X455731D01*
X456000Y345478D01*
X447142Y353500D02*
X451817D01*
X454839Y350478D01*
X456000D01*
X446903Y378739D02*
X455739D01*
X454839Y373478D02*
X456000D01*
X455739Y378739D02*
X456000Y378478D01*
X446642Y379000D02*
X446903Y378739D01*
X486028Y398000D02*
X486500D01*
X484028Y400000D02*
X486028Y398000D01*
X476079Y400000D02*
X484028D01*
X486500Y407409D02*
Y408000D01*
X484091Y405000D02*
X486500Y407409D01*
X476079Y405000D02*
X484091D01*
X451339Y396500D02*
X454839Y400000D01*
X446000Y396500D02*
X451339D01*
X455750Y405250D02*
X456000Y405000D01*
X486500Y457642D02*
Y469931D01*
X487000Y470431D01*
X474500Y457642D02*
Y470431D01*
X461500Y457642D02*
Y469431D01*
X462500Y470431D01*
X437500Y457642D02*
Y469931D01*
X438000Y470431D01*
X254358Y463784D02*
X261642Y456500D01*
X254358Y463784D02*
Y467500D01*
X325590Y296384D02*
Y297545D01*
X323905Y294700D02*
X325590Y296384D01*
X323905Y286000D02*
Y294700D01*
X312094Y286000D02*
Y286984D01*
X315478Y290368D01*
Y297489D01*
X462500Y248500D02*
X467500Y253500D01*
Y260000D01*
X482358Y274858D01*
X482500D01*
X462500Y258500D02*
X471500Y267500D01*
Y274858D01*
X452500Y248500D02*
X453000Y249000D01*
Y253000D01*
X457500Y257500D01*
Y261500D01*
X461000Y265000D01*
Y274858D01*
X451750Y259250D02*
X452500Y258500D01*
X451750Y259250D02*
Y274108D01*
X451000Y274858D02*
X451750Y274108D01*
X597929Y358071D02*
X598000Y358000D01*
X584071Y358071D02*
X597929D01*
X584000Y358142D02*
X584071Y358071D01*
X596929Y378429D02*
X597000Y378500D01*
X567754Y423750D02*
X568004Y424000D01*
X553392Y423750D02*
X567754D01*
X553142Y423500D02*
X553392Y423750D01*
X567754Y444250D02*
X568004Y444000D01*
X553534Y444250D02*
X567754D01*
X553284Y444500D02*
X553534Y444250D01*
X553142Y434000D02*
X568004D01*
X577858Y317858D02*
X578000Y318000D01*
X563142Y317858D02*
X577858D01*
X563000Y317717D02*
X563142Y317858D01*
X446000Y396500D02*
Y397091D01*
D76*
X200768Y480929D02*
D03*
X193064Y467198D02*
D03*
X186464Y474348D02*
D03*
X191225Y482835D02*
D03*
X201904Y471265D02*
D03*
X200768Y260799D02*
D03*
X193064Y247068D02*
D03*
X186464Y254218D02*
D03*
X191225Y262705D02*
D03*
X201904Y251135D02*
D03*
X598398Y480929D02*
D03*
X590694Y467198D02*
D03*
X584094Y474348D02*
D03*
X588855Y482835D02*
D03*
X599534Y471265D02*
D03*
X598523Y260712D02*
D03*
X590819Y246980D02*
D03*
X584219Y254131D02*
D03*
X588980Y262617D02*
D03*
X599659Y251047D02*
D03*
D77*
X194685Y475315D02*
D03*
Y255185D02*
D03*
X592315Y475315D02*
D03*
X592440Y255098D02*
D03*
D78*
X597000Y383500D02*
D03*
Y378500D02*
D03*
X598000Y353000D02*
D03*
Y358000D02*
D03*
D79*
X408319Y321500D02*
D03*
X398319D02*
D03*
X408319Y331500D02*
D03*
X398319D02*
D03*
X408319Y341500D02*
D03*
X398319D02*
D03*
X408319Y351500D02*
D03*
X398319D02*
D03*
X408319Y361500D02*
D03*
X398319D02*
D03*
X408319Y371500D02*
D03*
X398319D02*
D03*
X408319Y381500D02*
D03*
X398319D02*
D03*
X408319Y391500D02*
D03*
X398319D02*
D03*
X408319Y401500D02*
D03*
X398319D02*
D03*
X408319Y411500D02*
D03*
X398319D02*
D03*
X408319Y421500D02*
D03*
X530681Y321500D02*
D03*
X520681D02*
D03*
X530681Y331500D02*
D03*
X520681D02*
D03*
X530681Y341500D02*
D03*
X520681D02*
D03*
X530681Y351500D02*
D03*
X520681D02*
D03*
X530681Y361500D02*
D03*
X520681D02*
D03*
X530681Y371500D02*
D03*
X520681D02*
D03*
X530681Y381500D02*
D03*
X520681D02*
D03*
X530681Y391500D02*
D03*
X520681D02*
D03*
X530681Y401500D02*
D03*
X520681D02*
D03*
X530681Y411500D02*
D03*
X520681D02*
D03*
X530681Y421500D02*
D03*
X509500Y311500D02*
D03*
Y301500D02*
D03*
X499500Y311500D02*
D03*
Y301500D02*
D03*
X489500Y311500D02*
D03*
Y301500D02*
D03*
X479500Y311500D02*
D03*
Y301500D02*
D03*
X469500Y311500D02*
D03*
Y301500D02*
D03*
X439500Y311500D02*
D03*
Y301500D02*
D03*
X429500Y311500D02*
D03*
Y301500D02*
D03*
X419500Y311500D02*
D03*
X362000Y367500D02*
D03*
X372000Y377500D02*
D03*
X362000D02*
D03*
X372000Y387500D02*
D03*
X362000D02*
D03*
X372000Y397500D02*
D03*
X362000D02*
D03*
X372000Y407500D02*
D03*
X362000D02*
D03*
X372000Y417500D02*
D03*
X362000D02*
D03*
X361500Y302000D02*
D03*
X371500Y312000D02*
D03*
X361500D02*
D03*
X371500Y322000D02*
D03*
X361500D02*
D03*
X371500Y332000D02*
D03*
X361500D02*
D03*
X371500Y342000D02*
D03*
X361500D02*
D03*
X371500Y352000D02*
D03*
X361500D02*
D03*
X452500Y258500D02*
D03*
X462500Y248500D02*
D03*
Y258500D02*
D03*
X472500Y248500D02*
D03*
Y258500D02*
D03*
X482500Y248500D02*
D03*
Y258500D02*
D03*
X522000D02*
D03*
Y248500D02*
D03*
X512000Y258500D02*
D03*
Y248500D02*
D03*
X502000Y258500D02*
D03*
X374000Y472978D02*
D03*
Y482978D02*
D03*
X384000Y472978D02*
D03*
Y482978D02*
D03*
X394000Y472978D02*
D03*
X438319Y248500D02*
D03*
X428319D02*
D03*
X418319D02*
D03*
X408319D02*
D03*
X252000D02*
D03*
X262000D02*
D03*
X272000D02*
D03*
X529500Y481356D02*
D03*
X539500D02*
D03*
X549500D02*
D03*
X398319Y268500D02*
D03*
X408319D02*
D03*
X269000Y481356D02*
D03*
X279000D02*
D03*
D80*
X398319Y421500D02*
D03*
X520681D02*
D03*
X372000Y367500D02*
D03*
X371500Y302000D02*
D03*
D81*
X459500Y311500D02*
D03*
Y301500D02*
D03*
X449500Y311500D02*
D03*
Y301500D02*
D03*
D82*
X419500D02*
D03*
X452500Y248500D02*
D03*
X502000D02*
D03*
X394000Y482978D02*
D03*
X398319Y248500D02*
D03*
X242000D02*
D03*
X519500Y481356D02*
D03*
X418319Y268500D02*
D03*
X289000Y481356D02*
D03*
D83*
X578000Y328000D02*
D03*
Y318000D02*
D03*
D84*
Y323000D02*
D03*
D85*
X599500Y414000D02*
D03*
Y424000D02*
D03*
Y434000D02*
D03*
X568004Y444000D02*
D03*
Y434000D02*
D03*
X599500Y444000D02*
D03*
X568004Y424000D02*
D03*
Y414000D02*
D03*
D86*
X597000Y295000D02*
D03*
Y325000D02*
D03*
D87*
X228500Y370000D02*
D03*
X211500D02*
D03*
X194500D02*
D03*
X347500Y472000D02*
D03*
X330500D02*
D03*
X313500D02*
D03*
D88*
X445500Y282000D02*
D03*
X234852Y262500D02*
D03*
X266500Y378000D02*
D03*
X455000Y477500D02*
D03*
X446500Y410500D02*
D03*
X450000Y401000D02*
D03*
X448500Y358000D02*
D03*
X445300Y349000D02*
D03*
X563000Y312000D02*
D03*
X540500Y411500D02*
D03*
X437664Y364514D02*
D03*
X486500Y442000D02*
D03*
X451000Y410000D02*
D03*
X452022Y368478D02*
D03*
X309153Y315347D02*
D03*
X459500Y319000D02*
D03*
X307500Y315000D02*
D03*
X429000Y273000D02*
D03*
X360000Y273500D02*
D03*
Y270000D02*
D03*
X502000Y334500D02*
D03*
X506500Y332500D02*
D03*
X504000Y319000D02*
D03*
X497500Y286500D02*
D03*
X474500Y442000D02*
D03*
X432500Y354000D02*
D03*
X429000Y387500D02*
D03*
Y333000D02*
D03*
X430000Y334500D02*
D03*
X250000Y322500D02*
D03*
X246500D02*
D03*
X230500Y248500D02*
D03*
X553500Y325000D02*
D03*
X432500Y345500D02*
D03*
X400500Y459500D02*
D03*
X388500Y459000D02*
D03*
X383500Y456500D02*
D03*
X378000Y458000D02*
D03*
X300500Y436500D02*
D03*
X471500Y291000D02*
D03*
X429000Y396500D02*
D03*
X429172Y405500D02*
D03*
X554500Y344500D02*
D03*
X360000Y266000D02*
D03*
Y277500D02*
D03*
X432500Y370500D02*
D03*
Y379000D02*
D03*
X451500Y359000D02*
D03*
X453500Y336500D02*
D03*
X479000Y335500D02*
D03*
X480500Y357500D02*
D03*
X478500Y364000D02*
D03*
X480000Y383500D02*
D03*
X451545Y383545D02*
D03*
X478500Y390500D02*
D03*
X480889Y410112D02*
D03*
X461500Y442000D02*
D03*
X449500D02*
D03*
X437500D02*
D03*
X487000Y486000D02*
D03*
X474500D02*
D03*
X462500Y485500D02*
D03*
X450000Y486000D02*
D03*
X438000Y485500D02*
D03*
X264000Y429500D02*
D03*
X260000D02*
D03*
X256500D02*
D03*
X211500Y444000D02*
D03*
Y439000D02*
D03*
Y432500D02*
D03*
Y426500D02*
D03*
Y420000D02*
D03*
Y414000D02*
D03*
X204000Y444000D02*
D03*
Y439000D02*
D03*
Y432500D02*
D03*
Y426500D02*
D03*
Y420000D02*
D03*
Y414000D02*
D03*
X195500Y444000D02*
D03*
Y439000D02*
D03*
Y432500D02*
D03*
Y426500D02*
D03*
Y420000D02*
D03*
Y414000D02*
D03*
X187000D02*
D03*
Y420000D02*
D03*
Y426500D02*
D03*
Y432500D02*
D03*
Y439000D02*
D03*
Y444000D02*
D03*
X329000Y269500D02*
D03*
Y272000D02*
D03*
Y274500D02*
D03*
X292000Y301000D02*
D03*
X288500D02*
D03*
X292000Y305000D02*
D03*
X288500D02*
D03*
X482500Y291000D02*
D03*
X461000D02*
D03*
X451000Y290500D02*
D03*
X573500Y351000D02*
D03*
X574642Y385642D02*
D03*
X556126Y298626D02*
D03*
M02*
