G04*
G04 #@! TF.GenerationSoftware,Altium Limited,Altium Designer,25.4.2 (15)*
G04*
G04 Layer_Physical_Order=3*
G04 Layer_Color=128*
%FSLAX25Y25*%
%MOIN*%
G70*
G04*
G04 #@! TF.SameCoordinates,07519B64-833F-4F80-895D-8AF32BAA5A22*
G04*
G04*
G04 #@! TF.FilePolarity,Negative*
G04*
G01*
G75*
%ADD89C,0.04000*%
%ADD90C,0.03800*%
%ADD91C,0.13600*%
%ADD92C,0.03569*%
%ADD93C,0.05143*%
%ADD94C,0.05143*%
%ADD96C,0.04801*%
%ADD97C,0.04600*%
%ADD98C,0.10600*%
%ADD99C,0.02800*%
D89*
X177000Y237500D02*
X610000D01*
Y492992D01*
X609992Y493000D02*
X610000Y492992D01*
X177000Y493000D02*
X609992D01*
X177000D02*
X177000Y237500D01*
D90*
X200768Y480929D02*
D03*
X193064Y467198D02*
D03*
X186464Y474348D02*
D03*
X191225Y482835D02*
D03*
X201904Y471265D02*
D03*
X200768Y260799D02*
D03*
X193064Y247068D02*
D03*
X186464Y254218D02*
D03*
X191225Y262705D02*
D03*
X201904Y251135D02*
D03*
X598398Y480929D02*
D03*
X590694Y467198D02*
D03*
X584094Y474348D02*
D03*
X588855Y482835D02*
D03*
X599534Y471265D02*
D03*
X598523Y260712D02*
D03*
X590819Y246980D02*
D03*
X584219Y254131D02*
D03*
X588980Y262617D02*
D03*
X599659Y251047D02*
D03*
D91*
X194685Y475315D02*
D03*
Y255185D02*
D03*
X592315Y475315D02*
D03*
X592440Y255098D02*
D03*
D92*
X597000Y383500D02*
D03*
Y378500D02*
D03*
X598000Y353000D02*
D03*
Y358000D02*
D03*
D93*
X408319Y321500D02*
D03*
X398319D02*
D03*
X408319Y331500D02*
D03*
X398319D02*
D03*
X408319Y341500D02*
D03*
X398319D02*
D03*
X408319Y351500D02*
D03*
X398319D02*
D03*
X408319Y361500D02*
D03*
X398319D02*
D03*
X408319Y371500D02*
D03*
X398319D02*
D03*
X408319Y381500D02*
D03*
X398319D02*
D03*
X408319Y391500D02*
D03*
X398319D02*
D03*
X408319Y401500D02*
D03*
X398319D02*
D03*
X408319Y411500D02*
D03*
X398319D02*
D03*
X408319Y421500D02*
D03*
X398319D02*
D03*
X530681Y321500D02*
D03*
X520681D02*
D03*
X530681Y331500D02*
D03*
X520681D02*
D03*
X530681Y341500D02*
D03*
X520681D02*
D03*
X530681Y351500D02*
D03*
X520681D02*
D03*
X530681Y361500D02*
D03*
X520681D02*
D03*
X530681Y371500D02*
D03*
X520681D02*
D03*
X530681Y381500D02*
D03*
X520681D02*
D03*
X530681Y391500D02*
D03*
X520681D02*
D03*
X530681Y401500D02*
D03*
X520681D02*
D03*
X530681Y411500D02*
D03*
X520681D02*
D03*
X530681Y421500D02*
D03*
X520681D02*
D03*
X509500Y311500D02*
D03*
Y301500D02*
D03*
X499500Y311500D02*
D03*
Y301500D02*
D03*
X489500Y311500D02*
D03*
Y301500D02*
D03*
X479500Y311500D02*
D03*
Y301500D02*
D03*
X469500Y311500D02*
D03*
Y301500D02*
D03*
X459500Y311500D02*
D03*
Y301500D02*
D03*
X449500Y311500D02*
D03*
Y301500D02*
D03*
X439500Y311500D02*
D03*
Y301500D02*
D03*
X429500Y311500D02*
D03*
Y301500D02*
D03*
X419500Y311500D02*
D03*
Y301500D02*
D03*
X578000Y328000D02*
D03*
Y318000D02*
D03*
X372000Y367500D02*
D03*
X362000D02*
D03*
X372000Y377500D02*
D03*
X362000D02*
D03*
X372000Y387500D02*
D03*
X362000D02*
D03*
X372000Y397500D02*
D03*
X362000D02*
D03*
X372000Y407500D02*
D03*
X362000D02*
D03*
X372000Y417500D02*
D03*
X362000D02*
D03*
X371500Y302000D02*
D03*
X361500D02*
D03*
X371500Y312000D02*
D03*
X361500D02*
D03*
X371500Y322000D02*
D03*
X361500D02*
D03*
X371500Y332000D02*
D03*
X361500D02*
D03*
X371500Y342000D02*
D03*
X361500D02*
D03*
X371500Y352000D02*
D03*
X361500D02*
D03*
X452500Y248500D02*
D03*
Y258500D02*
D03*
X462500Y248500D02*
D03*
Y258500D02*
D03*
X472500Y248500D02*
D03*
Y258500D02*
D03*
X482500Y248500D02*
D03*
Y258500D02*
D03*
X522000D02*
D03*
Y248500D02*
D03*
X512000Y258500D02*
D03*
Y248500D02*
D03*
X502000Y258500D02*
D03*
Y248500D02*
D03*
X374000Y472978D02*
D03*
Y482978D02*
D03*
X384000Y472978D02*
D03*
Y482978D02*
D03*
X394000Y472978D02*
D03*
Y482978D02*
D03*
X438319Y248500D02*
D03*
X428319D02*
D03*
X418319D02*
D03*
X408319D02*
D03*
X398319D02*
D03*
X242000D02*
D03*
X252000D02*
D03*
X262000D02*
D03*
X272000D02*
D03*
X519500Y481356D02*
D03*
X529500D02*
D03*
X539500D02*
D03*
X549500D02*
D03*
X398319Y268500D02*
D03*
X408319D02*
D03*
X418319D02*
D03*
X269000Y481356D02*
D03*
X279000D02*
D03*
X289000D02*
D03*
D94*
X578000Y323000D02*
D03*
D96*
X599500Y414000D02*
D03*
Y424000D02*
D03*
Y434000D02*
D03*
X568004Y444000D02*
D03*
Y434000D02*
D03*
X599500Y444000D02*
D03*
X568004Y424000D02*
D03*
Y414000D02*
D03*
D97*
X597000Y295000D02*
D03*
Y325000D02*
D03*
D98*
X228500Y370000D02*
D03*
X211500D02*
D03*
X194500D02*
D03*
X347500Y472000D02*
D03*
X330500D02*
D03*
X313500D02*
D03*
D99*
X445500Y282000D02*
D03*
X234852Y262500D02*
D03*
X266500Y378000D02*
D03*
X455000Y477500D02*
D03*
X446500Y410500D02*
D03*
X450000Y401000D02*
D03*
X448500Y358000D02*
D03*
X445300Y349000D02*
D03*
X563000Y312000D02*
D03*
X540500Y411500D02*
D03*
X437664Y364514D02*
D03*
X486500Y442000D02*
D03*
X451000Y410000D02*
D03*
X452022Y368478D02*
D03*
X309153Y315347D02*
D03*
X459500Y319000D02*
D03*
X307500Y315000D02*
D03*
X429000Y273000D02*
D03*
X360000Y273500D02*
D03*
Y270000D02*
D03*
X502000Y334500D02*
D03*
X506500Y332500D02*
D03*
X504000Y319000D02*
D03*
X497500Y286500D02*
D03*
X474500Y442000D02*
D03*
X432500Y354000D02*
D03*
X429000Y387500D02*
D03*
Y333000D02*
D03*
X430000Y334500D02*
D03*
X250000Y322500D02*
D03*
X246500D02*
D03*
X230500Y248500D02*
D03*
X553500Y325000D02*
D03*
X432500Y345500D02*
D03*
X400500Y459500D02*
D03*
X388500Y459000D02*
D03*
X383500Y456500D02*
D03*
X378000Y458000D02*
D03*
X300500Y436500D02*
D03*
X471500Y291000D02*
D03*
X429000Y396500D02*
D03*
X429172Y405500D02*
D03*
X554500Y344500D02*
D03*
X360000Y266000D02*
D03*
Y277500D02*
D03*
X432500Y370500D02*
D03*
Y379000D02*
D03*
X451500Y359000D02*
D03*
X453500Y336500D02*
D03*
X479000Y335500D02*
D03*
X480500Y357500D02*
D03*
X478500Y364000D02*
D03*
X480000Y383500D02*
D03*
X451545Y383545D02*
D03*
X478500Y390500D02*
D03*
X480889Y410112D02*
D03*
X461500Y442000D02*
D03*
X449500D02*
D03*
X437500D02*
D03*
X487000Y486000D02*
D03*
X474500D02*
D03*
X462500Y485500D02*
D03*
X450000Y486000D02*
D03*
X438000Y485500D02*
D03*
X264000Y429500D02*
D03*
X260000D02*
D03*
X256500D02*
D03*
X211500Y444000D02*
D03*
Y439000D02*
D03*
Y432500D02*
D03*
Y426500D02*
D03*
Y420000D02*
D03*
Y414000D02*
D03*
X204000Y444000D02*
D03*
Y439000D02*
D03*
Y432500D02*
D03*
Y426500D02*
D03*
Y420000D02*
D03*
Y414000D02*
D03*
X195500Y444000D02*
D03*
Y439000D02*
D03*
Y432500D02*
D03*
Y426500D02*
D03*
Y420000D02*
D03*
Y414000D02*
D03*
X187000D02*
D03*
Y420000D02*
D03*
Y426500D02*
D03*
Y432500D02*
D03*
Y439000D02*
D03*
Y444000D02*
D03*
X329000Y269500D02*
D03*
Y272000D02*
D03*
Y274500D02*
D03*
X292000Y301000D02*
D03*
X288500D02*
D03*
X292000Y305000D02*
D03*
X288500D02*
D03*
X482500Y291000D02*
D03*
X461000D02*
D03*
X451000Y290500D02*
D03*
X573500Y351000D02*
D03*
X574642Y385642D02*
D03*
X556126Y298626D02*
D03*
M02*
