M48
;Layer_Color=9474304
;FILE_FORMAT=2:4
INCH,LZ
;TYPE=PLATED
T01F00S00C0.0120
T02F00S00C0.0197
T03F00S00C0.0220
T04F00S00C0.0300
T05F00S00C0.0320
T06F00S00C0.0354
T07F00S00C0.0900
T08F00S00C0.1200
%
T01
X04715Y0291
X04825
X04975Y02865
X055613Y029863
X0563Y0312
X0461Y0291
X0451Y02905
X04455Y0282
X0429Y0273
X036Y02735
Y027
Y0266
Y02775
X0329Y02745
Y0272
Y02695
X0292Y0301
X02885
Y0305
X0292
X023485Y02625
X02305Y02485
X02465Y03225
X025
X03075Y0315
X030915Y031535
X02665Y0378
X0264Y04295
X026
X02565
X02115Y04325
Y04265
Y042
Y0414
X0204
Y042
Y04265
Y04325
Y0439
Y0444
X02115
Y0439
X01955
Y0444
X0187
Y0439
Y04325
Y04265
Y042
Y0414
X01955
Y042
Y04265
Y04325
X03005Y04365
X0378Y0458
X03835Y04565
X03885Y0459
X04005Y04595
X04375Y0442
X04495
X04615
X0451Y041
X04465Y04105
X045Y0401
X045154Y038354
X045202Y036848
X04515Y0359
X04485Y0358
X04453Y0349
X04325Y03455
Y0354
X043766Y036451
X04325Y03705
Y0379
X0429Y03875
Y03965
X042917Y04055
X043Y03345
X0429Y0333
X04535Y03365
X04595Y0319
X0479Y03355
X04805Y03575
X04785Y0364
X048Y03835
X04785Y03905
X048089Y041011
X04865Y0442
X04745
X05405Y04115
X057464Y038564
X05735Y0351
X05545Y03445
X05535Y0325
X05065Y03325
X0502Y03345
X0504Y0319
X0487Y0486
X04745
X04625Y04855
X045Y0486
X0438Y04855
X0455Y04775
T02
X0598Y0353
Y0358
X0597Y03785
Y03835
T03
X059082Y024698
X059966Y025105
X059852Y026071
X058898Y026262
X058422Y025413
X02019Y025113
X020077Y02608
X019123Y026271
X018646Y025422
X019306Y024707
Y04672
X059069
X059953Y047126
X05984Y048093
X058886Y048284
X058409Y047435
X02019Y047126
X020077Y048093
X019123Y048284
X018646Y047435
T04
X0597Y0295
Y0325
T05
X0568Y0414
Y0424
Y0434
Y0444
X05995
Y0434
Y0424
Y0414
T06
X04725Y02485
Y02585
X04825
Y02485
X0502
X0512
X0522
Y02585
X0512
X0502
X04995Y03015
X05095
Y03115
X04995
X04895
Y03015
X04795
Y03115
X04695
Y03015
X04595
Y03115
X04495
Y03015
X04395
Y03115
X04295
Y03015
X04195
Y03115
X041832Y02685
X040832
X039832
Y02485
X040832
X041832
X042832
X043832
X04525
Y02585
X04625
Y02485
X03715Y0302
X03615
Y0312
X03715
X0272Y02485
X0262
X0252
X0242
X03615Y0322
X03715
Y0332
X03615
Y0342
X03715
Y0352
X03615
X0362Y03675
X0372
Y03775
X0362
Y03875
X0372
Y03975
X0362
Y04075
X0372
Y04175
X0362
X039832Y04215
Y04115
Y04015
Y03915
Y03815
Y03715
Y03615
Y03515
Y03415
Y03315
Y03215
X040832
Y03315
Y03415
Y03515
Y03615
Y03715
Y03815
Y03915
Y04015
Y04115
Y04215
X052068
Y04115
Y04015
Y03915
Y03815
Y03715
Y03615
Y03515
Y03415
Y03315
Y03215
X053068
Y03315
Y03415
Y03515
Y03615
Y03715
Y03815
Y03915
Y04015
Y04115
Y04215
X0578Y0328
Y0323
Y0318
X05495Y048136
X05395
X05295
X05195
X0394Y048298
X0384
X0374
Y047298
X0384
X0394
X0289Y048136
X0279
X0269
T07
X01945Y037
X02115
X02285
X03135Y0472
X03305
X03475
T08
X059244Y02551
X019468Y025519
X059232Y047531
X019468
M30
